<svg width="215" height="42" viewBox="0 0 215 42" fill="none" xmlns="http://www.w3.org/2000/svg">
<path d="M18.7794 1.98535C16.893 3.08838 15.1176 8.27262 15.1176 12.3538V15.7732L17.6697 13.4569C20.1109 11.1405 26.2139 10.0375 26.2139 11.9126C26.2139 12.3538 22.885 14.229 18.7794 15.9938C10.3462 19.6338 0.692383 28.0169 0.692383 31.7672C0.692383 35.0763 4.79802 37.5029 10.5681 37.5029H15.5614L13.1203 35.2969C9.23655 31.6569 9.90233 27.3551 15.1176 22.7223C17.6697 20.5163 21.8863 17.5381 24.6604 16.2144L29.6538 13.7878L31.873 16.5454C33.0936 18.0896 35.9787 23.2738 38.4199 28.1272C40.861 32.9805 42.8584 36.3999 42.8584 35.7381C42.8584 33.3114 39.1966 22.3914 36.6444 17.3175C35.091 14.4496 34.2033 12.1332 34.5361 12.1332C34.869 12.1332 32.6498 9.59626 29.5428 6.61808C24.2166 1.32353 21.5535 0.220505 18.7794 1.98535Z" fill="#FF820E"/>
<path d="M19.778 25.9212C16.1163 30.554 18.8903 35.7382 24.7714 35.0764C28.6551 34.6352 31.0963 30.4437 29.3209 27.1346C26.7687 22.3915 22.996 21.84 19.778 25.9212Z" fill="#FF820E"/>
<path d="M52.1598 8.97645C52.1598 9.52797 52.9365 10.0795 53.8242 10.0795C56.4873 10.0795 56.1544 26.4043 53.6023 28.3898C51.8269 29.7134 52.4927 29.8237 58.2627 29.8237C64.0328 29.8237 64.6986 29.7134 63.0342 28.3898C61.9245 27.6177 61.0368 25.5219 61.0368 23.7571L61.1478 20.5583L65.3644 25.3013C69.2481 29.7134 69.9139 30.0443 74.4634 29.7134L79.3457 29.3825L76.1278 27.728C74.3524 26.8455 71.3564 24.1983 69.581 21.8819L66.1411 17.8007L69.9139 13.9401C72.0222 11.8443 74.3524 10.0795 75.1291 10.0795C75.9059 10.0795 76.5717 9.52797 76.5717 8.97645C76.5717 8.31464 74.3524 7.87342 71.5783 7.87342C67.0288 7.87342 64.8096 9.30736 67.9165 10.3001C69.581 10.8516 68.3604 12.7268 64.3657 15.5946L61.0368 17.911V14.0504C61.0368 11.2928 61.4807 10.0795 62.7013 10.0795C63.589 10.0795 64.3657 9.52797 64.3657 8.97645C64.3657 8.31464 61.5916 7.87342 58.2627 7.87342C54.9338 7.87342 52.1598 8.31464 52.1598 8.97645Z" fill="#FF820E"/>
<path d="M84.4502 9.41784C78.7911 12.5063 77.3486 19.2348 81.0104 25.3015C85.227 32.1403 94.5479 32.8021 100.207 26.6251C106.976 19.1245 102.093 7.8736 91.8848 7.8736C89.2217 7.9839 85.8928 8.64572 84.4502 9.41784ZM95.3246 12.7269C96.7672 14.4918 97.211 21.6615 96.1014 25.3015C95.1027 28.1694 92.5506 29.1621 89.7765 27.6178C85.116 25.1912 83.8954 14.933 87.6682 11.1827C90.1094 8.75602 92.4396 9.30754 95.3246 12.7269Z" fill="#FF820E"/>
<path d="M104.867 8.9765C104.535 9.52802 104.978 10.0795 105.866 10.0795C108.64 10.0795 108.418 27.1765 105.755 28.7207C104.313 29.6032 106.31 29.8238 113.412 29.9341H122.954L124.175 26.5147C125.618 22.2129 125.618 22.2129 124.286 22.2129C123.62 22.2129 122.511 23.4262 121.845 24.9704C120.846 27.2868 119.847 27.728 117.184 27.5074L113.745 27.1765L113.412 19.1244C113.19 12.7268 113.412 11.0723 114.854 10.5207C115.742 10.1898 116.519 9.41772 116.519 8.8662C116.519 7.54256 105.755 7.65287 104.867 8.9765Z" fill="#FF820E"/>
<path d="M130.721 11.0722C127.614 13.8297 127.06 15.0431 127.06 19.3449C127.06 26.0734 130.832 29.934 138.045 30.7061C142.705 31.2576 143.371 31.037 147.033 27.397C150.251 24.1982 150.917 22.7643 150.917 18.9037C150.917 8.64549 138.711 3.90246 130.721 11.0722ZM142.705 12.9473C144.925 16.1461 145.147 24.86 143.149 27.1764C141.263 29.4928 138.267 29.2722 135.937 26.6249C133.496 23.9776 132.497 15.5946 134.161 12.3958C135.937 9.0867 140.375 9.41761 142.705 12.9473Z" fill="#FF820E"/>
<path d="M152.026 8.8662C152.026 9.41771 152.803 10.0795 153.691 10.5207C156.243 11.5135 156.021 26.4044 153.469 28.3898C151.694 29.7135 152.359 29.8238 158.129 29.8238C163.234 29.8238 164.343 29.6032 162.901 28.7207C160.904 27.6177 160.016 21.1098 161.791 21.1098C162.235 21.2201 163.9 23.2056 165.564 25.522C168.227 29.3826 169.226 29.9341 172.777 29.9341C176.327 29.8238 176.66 29.6032 175.329 28.5001C174.441 27.728 172.222 25.522 170.557 23.4262C167.45 19.7862 167.45 19.6759 169.781 18.1317C172.777 16.0359 172.666 11.7341 169.559 9.63832C166.896 7.76317 152.026 7.10135 152.026 8.8662ZM165.342 11.6238C167.339 14.1607 166.23 18.3523 163.456 18.6832C161.125 19.0141 160.904 18.5729 160.904 14.602C160.904 9.85892 162.79 8.64559 165.342 11.6238Z" fill="#FF820E"/>
<path d="M178.658 8.97645C178.658 9.52797 179.435 10.0795 180.322 10.0795C182.985 10.0795 182.763 27.1765 180.1 28.7207C178.547 29.6031 179.656 29.8237 184.761 29.8237C189.865 29.8237 190.975 29.6031 189.532 28.7207C186.758 27.1765 186.536 10.0795 189.199 10.0795C190.087 10.0795 190.864 9.52797 190.864 8.97645C190.864 8.31464 188.09 7.87342 184.761 7.87342C181.432 7.87342 178.658 8.31464 178.658 8.97645Z" fill="#FF820E"/>
<path d="M193.083 11.8443C193.083 14.1607 193.527 15.4843 194.193 15.0431C194.859 14.7122 195.302 13.6092 195.302 12.7268C195.302 11.8443 196.412 11.1825 198.076 11.1825C200.74 11.1825 200.851 11.4031 200.851 19.2346C200.851 26.6249 200.629 27.5074 198.409 28.6104C196.301 29.6031 197.078 29.8237 203.07 29.8237C209.284 29.8237 210.06 29.7134 208.396 28.3898C205.733 26.4043 205.4 10.0795 208.063 10.0795C208.951 10.0795 210.282 11.0722 211.059 12.2855C213.056 15.374 213.833 15.0431 214.388 11.1825L214.943 7.87342H203.957H193.083V11.8443Z" fill="#FF820E"/>
</svg>
