<svg width="19" height="19" viewBox="0 0 19 19" fill="none" xmlns="http://www.w3.org/2000/svg">
<path d="M0.340041 18.9998H0.446242L6.00429 17.3365C6.07509 17.3012 6.11049 17.2658 6.14589 17.2304H6.18129L18.359 5.05678C18.7484 4.66751 18.9608 4.13668 18.9962 3.60585C19.0316 3.07503 18.8192 2.5442 18.4298 2.15493L16.8368 0.562454C16.0226 -0.21609 14.7127 -0.180702 13.9339 0.633231L11.3851 3.28736C11.2435 3.42891 11.2081 3.64124 11.3497 3.7828C11.4913 3.92435 11.7037 3.95974 11.8453 3.81818L12.4117 3.25197L15.8102 6.64925L6.11049 16.3105V16.2043C6.18129 15.5319 5.72108 14.9657 5.08388 14.8596H4.80068C4.55287 14.8596 4.44667 14.8596 4.30507 14.718C4.16347 14.5765 4.16347 14.4703 4.16347 14.2226C4.23427 13.5502 3.77407 12.9486 3.13686 12.8778H2.85366H2.74746L10.8543 4.80926C10.9959 4.66771 10.9959 4.45538 10.8543 4.31382C10.7127 4.17227 10.5003 4.17227 10.3587 4.31382L1.86266 12.7363L1.82726 12.7716V12.807C1.79186 12.8424 1.75646 12.9132 1.72106 12.9486L0.0218435 18.54C-0.048957 18.7523 0.0572438 18.9292 0.269645 19H0.340446L0.340041 18.9998ZM12.9069 2.75674L14.4645 1.12887C14.9601 0.598044 15.8098 0.562656 16.3408 1.05809L17.9338 2.65057C18.1816 2.89829 18.2878 3.21678 18.2878 3.57067C18.2878 3.92455 18.1108 4.27843 17.863 4.56154L16.27 6.15402L12.9069 2.75674ZM2.25125 13.5504C2.42825 13.6212 2.64065 13.6212 2.81765 13.6212C3.06546 13.6212 3.17166 13.6212 3.31326 13.7627C3.45486 13.9043 3.45486 14.0104 3.45486 14.2582C3.38406 14.9305 3.84426 15.5321 4.48147 15.6029H4.76467C5.01247 15.6029 5.11867 15.6029 5.26027 15.7445C5.40187 15.886 5.40187 15.9922 5.40187 16.2399C5.40187 16.4522 5.40187 16.6292 5.47267 16.8061L0.87064 18.1509L2.25125 13.5504ZM4.87087 14.1166C5.01247 14.2582 5.22487 14.2582 5.36647 14.1166L13.2605 6.2252C13.4021 6.08365 13.3667 5.83593 13.2251 5.72976C13.0835 5.6236 12.9065 5.6236 12.7649 5.72976L4.87087 13.6212C4.72927 13.7627 4.72927 13.9751 4.87087 14.1166Z" fill="#444444"/>
</svg>
